<svg width="150" height="148" viewBox="0 0 150 148" fill="none" xmlns="http://www.w3.org/2000/svg">
<g clip-path="url(#clip0_299_3532)">
<path d="M0 7.64667H5C10 7.64667 20 7.64667 30 6.90667C40 6.16667 50 4.68667 60 4.68667C70 4.68667 80 6.16667 90 6.66C100 7.15333 110 6.66 120 6.41333C130 6.16667 140 6.16667 145 6.16667H150V0H145C140 0 130 0 120 0C110 0 100 0 90 0C80 0 70 0 60 0C50 0 40 0 30 0C20 0 10 0 5 0H0V7.64667Z" fill="#6198FF"/>
<path d="M0 13.5667L5 13.32C10 13.0734 20 12.58 30 12.3334C40 12.0867 50 12.0867 60 12.8267C70 13.5667 80 15.0467 90 14.8C100 14.5534 110 12.58 120 12.3334C130 12.0867 140 13.5667 145 14.3067L150 15.0467V5.67336H145C140 5.67336 130 5.67336 120 5.92003C110 6.16669 100 6.66003 90 6.16669C80 5.67336 70 4.19336 60 4.19336C50 4.19336 40 5.67336 30 6.41336C20 7.15336 10 7.15336 5 7.15336H0V13.5667Z" fill="#548FFF"/>
<path d="M0 63.8876L5 60.4342C10 56.9809 20 50.0742 30 45.3876C40 40.7009 50 38.2342 60 39.9609C70 41.6876 80 47.6076 90 48.5942C100 49.5809 110 45.6342 120 44.6476C130 43.6609 140 45.6342 145 46.6209L150 47.6076V14.5542L145 13.8142C140 13.0742 130 11.5942 120 11.8409C110 12.0876 100 14.0609 90 14.3076C80 14.5542 70 13.0742 60 12.3342C50 11.5942 40 11.5942 30 11.8409C20 12.0876 10 12.5809 5 12.8276L0 13.0742V63.8876Z" fill="#4686FF"/>
<path d="M0 71.2859L5 67.5859C10 63.8859 20 56.4859 30 51.3059C40 46.1259 50 43.1659 60 44.3992C70 45.6326 80 51.0592 90 52.0459C100 53.0326 110 49.5792 120 49.0859C130 48.5926 140 51.0592 145 52.2926L150 53.5259V47.1126L145 46.1259C140 45.1392 130 43.1659 120 44.1526C110 45.1392 100 49.0859 90 48.0992C80 47.1126 70 41.1926 60 39.4659C50 37.7392 40 40.2059 30 44.8926C20 49.5792 10 56.4859 5 59.9393L0 63.3926V71.2859Z" fill="#387DFF"/>
<path d="M0 78.6876L5 75.9742C10 73.2609 20 67.8342 30 63.1476C40 58.4609 50 54.5142 60 54.7609C70 55.0076 80 59.4476 90 60.6809C100 61.9142 110 59.9409 120 59.9409C130 59.9409 140 61.9142 145 62.9009L150 63.8876V53.0342L145 51.8009C140 50.5676 130 48.1009 120 48.5943C110 49.0876 100 52.5409 90 51.5542C80 50.5676 70 45.1409 60 43.9076C50 42.6743 40 45.6343 30 50.8143C20 55.9942 10 63.3942 5 67.0942L0 70.7942V78.6876Z" fill="#2874FF"/>
<path d="M0 102.367L5 101.873C10 101.38 20 100.393 30 94.9668C40 89.5402 50 79.6735 60 76.9602C70 74.2468 80 78.6868 90 79.6735C100 80.6602 110 78.1935 120 79.1802C130 80.1668 140 84.6068 145 86.8268L150 89.0468V63.3935L145 62.4068C140 61.4202 130 59.4468 120 59.4468C110 59.4468 100 61.4202 90 60.1868C80 58.9535 70 54.5135 60 54.2668C50 54.0202 40 57.9668 30 62.6535C20 67.3402 10 72.7668 5 75.4802L0 78.1935V102.367Z" fill="#126BFF"/>
<path d="M0 114.208L5 113.468C10 112.728 20 111.248 30 107.054C40 102.861 50 95.9543 60 94.2276C70 92.501 80 95.9543 90 97.4343C100 98.9143 110 98.421 120 99.901C130 101.381 140 104.834 145 106.561L150 108.288V88.5543L145 86.3343C140 84.1143 130 79.6743 120 78.6876C110 77.701 100 80.1676 90 79.181C80 78.1943 70 73.7543 60 76.4676C50 79.181 40 89.0476 30 94.4743C20 99.901 10 100.888 5 101.381L0 101.874V114.208Z" fill="#0064F9"/>
<path d="M0 120.127L5 119.141C10 118.154 20 116.181 30 112.727C40 109.274 50 104.341 60 103.847C70 103.354 80 107.301 90 108.041C100 108.781 110 106.314 120 106.807C130 107.301 140 110.754 145 112.481L150 114.207V107.794L145 106.067C140 104.341 130 100.887 120 99.4074C110 97.9274 100 98.4207 90 96.9407C80 95.4607 70 92.0074 60 93.734C50 95.4607 40 102.367 30 106.561C20 110.754 10 112.234 5 112.974L0 113.714V120.127Z" fill="#005FEC"/>
<path d="M0 129.006L5 127.773C10 126.54 20 124.073 30 121.853C40 119.633 50 117.66 60 118.4C70 119.14 80 122.593 90 123.826C100 125.06 110 124.073 120 123.58C130 123.086 140 123.086 145 123.086H150V113.713L145 111.986C140 110.26 130 106.806 120 106.313C110 105.82 100 108.286 90 107.546C80 106.806 70 102.86 60 103.353C50 103.846 40 108.78 30 112.233C20 115.686 10 117.66 5 118.646L0 119.633V129.006Z" fill="#005AE0"/>
<path d="M0 137.886L5 136.9C10 135.913 20 133.94 30 132.706C40 131.473 50 130.98 60 131.966C70 132.953 80 135.42 90 135.42C100 135.42 110 132.953 120 132.46C130 131.966 140 133.446 145 134.186L150 134.926V122.593H145C140 122.593 130 122.593 120 123.086C110 123.58 100 124.566 90 123.333C80 122.1 70 118.646 60 117.906C50 117.166 40 119.14 30 121.36C20 123.58 10 126.046 5 127.28L0 128.513V137.886Z" fill="#0055D3"/>
<path d="M0 142.327L5 141.587C10 140.847 20 139.367 30 138.627C40 137.887 50 137.887 60 138.627C70 139.367 80 140.847 90 140.847C100 140.847 110 139.367 120 139.367C130 139.367 140 140.847 145 141.587L150 142.327V134.434L145 133.694C140 132.954 130 131.474 120 131.967C110 132.461 100 134.927 90 134.927C80 134.927 70 132.461 60 131.474C50 130.487 40 130.981 30 132.214C20 133.447 10 135.421 5 136.407L0 137.394V142.327Z" fill="#0051C7"/>
<path d="M0 148.246H5C10 148.246 20 148.246 30 148.246C40 148.246 50 148.246 60 148.246C70 148.246 80 148.246 90 148.246C100 148.246 110 148.246 120 148.246C130 148.246 140 148.246 145 148.246H150V141.833L145 141.093C140 140.353 130 138.873 120 138.873C110 138.873 100 140.353 90 140.353C80 140.353 70 138.873 60 138.133C50 137.393 40 137.393 30 138.133C20 138.873 10 140.353 5 141.093L0 141.833V148.246Z" fill="#004CBB"/>
</g>
<defs>
<clipPath id="clip0_299_3532">
<rect width="150" height="148" rx="74" fill="white"/>
</clipPath>
</defs>
</svg>
