<svg xmlns="http://www.w3.org/2000/svg" width="51" height="50" viewBox="0 0 51 50">
  <g>
    <g>
      <path fill="#e31e25" d="M49.59 31.048C46.251 44.44 32.684 52.59 19.288 49.252c-13.39-3.34-21.542-16.905-18.2-30.297C4.424 5.56 17.99-2.591 31.382.748c13.395 3.339 21.546 16.906 18.207 30.3z"/>
    </g>
    <g>
      <path fill="#fff" d="M40.436 21.159L22.925 42.615 10.24 10.531l23.727 4.158zm-11.755.492l8.04-1.172-3.294-3.295zm2.474-5.276L15.714 13.67l9.71 8.101zm-16.668-.935l8.228 20.81 1.614-12.6zM24.79 36.937l11.626-14.246-9.99 1.456z"/>
    </g>
  </g>
</svg>