<svg width="35" height="41" viewBox="0 0 35 41" fill="none" xmlns="http://www.w3.org/2000/svg">
<path d="M17.0696 20.5059L21.0904 24.833M17.0696 20.5059V39.978V20.5059ZM17.0696 20.5059L13.0488 24.833L17.0696 20.5059Z" stroke="white" stroke-opacity="0.5" stroke-width="2" stroke-linecap="round" stroke-linejoin="round"/>
<path d="M5.8658 14.2695C4.34468 14.7844 3.01568 16.0289 2.1285 17.769C1.24132 19.5091 0.85702 21.6251 1.0478 23.7195C1.23859 25.8139 1.99133 27.7426 3.16459 29.143C4.33786 30.5435 5.8509 31.3194 7.41943 31.325H9.02774" stroke="white" stroke-opacity="0.5" stroke-width="2" stroke-linecap="round" stroke-linejoin="round"/>
<path d="M23.2268 9.98614C22.6771 7.05787 21.3203 4.52035 19.4314 2.88795C17.5426 1.25556 15.2629 0.650436 13.0547 1.19526C10.8465 1.74008 8.87485 3.39407 7.53951 5.82196C6.20417 8.24984 5.60503 11.2699 5.86355 14.27C5.86355 14.27 6.10962 16.1783 6.61302 17.2601" stroke="white" stroke-opacity="0.5" stroke-width="2" stroke-linecap="round" stroke-linejoin="round"/>
<path d="M25.1126 31.3232C26.2481 31.3222 27.3706 30.9977 28.4062 30.371C29.4417 29.7443 30.3669 28.8297 31.1208 27.6873C31.8747 26.5449 32.4401 25.2008 32.78 23.7432C33.1199 22.2857 33.2264 20.7478 33.0926 19.2309C32.9589 17.714 32.5878 16.2524 32.0038 14.9423C31.4199 13.6322 30.6363 12.5033 29.7047 11.6299C28.773 10.7566 27.7145 10.1585 26.5986 9.87521C25.4828 9.59188 24.335 9.62966 23.2308 9.98607L21.0918 10.7693" stroke="white" stroke-opacity="0.5" stroke-width="2" stroke-linecap="round" stroke-linejoin="round"/>
</svg>
